<svg width="22" height="28" viewBox="0 0 22 28" fill="none" xmlns="http://www.w3.org/2000/svg">
<path d="M12.1079 19.0251L12.2573 18.8782C12.5599 18.5806 12.7403 18.166 12.7404 17.6965L12.1079 19.0251ZM12.1079 19.0251V19.2347M12.1079 19.0251V19.2347M12.1079 19.2347V22.8281C12.1079 22.9661 11.9843 23.0878 11.851 23.0878H10.1491C10.0157 23.0878 9.89217 22.9661 9.89217 22.8281V19.2347V19.0251M12.1079 19.2347L9.89217 19.0251M9.89217 19.0251L9.74278 18.8782M9.89217 19.0251L9.74278 18.8782M9.74278 18.8782C9.44015 18.5805 9.25973 18.166 9.25973 17.6965C9.25973 16.8039 9.95039 16.0656 10.7825 16.032L10.7825 16.032M9.74278 18.8782L10.7825 16.032M10.7825 16.032C10.8878 16.0277 11.1123 16.0277 11.2176 16.032L11.2177 16.032M10.7825 16.032L11.2177 16.032M11.2177 16.032C12.0497 16.0656 12.7404 16.8038 12.7404 17.6964L11.2177 16.032ZM19.5812 10.9999H19.5742V9.12879C19.5742 4.48136 15.8833 0.584973 11.2468 0.501683C11.1218 0.499439 10.8782 0.499439 10.7533 0.501683C6.11661 0.584973 2.42582 4.48136 2.42582 9.12879V10.9999H2.41874C1.25722 10.9999 0.5 12.1464 0.5 13.3005V25.1929C0.5 26.3433 1.2551 27.5 2.4188 27.5H19.5812C20.7448 27.5 21.5 26.3433 21.5 25.1929V13.3005C21.5 12.1464 20.7428 10.9999 19.5812 10.9999ZM6.7677 10.9999V9.12879C6.7677 6.78738 8.67373 4.85637 11 4.85637C13.3263 4.85637 15.2324 6.7874 15.2324 9.12879V10.9999H6.7677Z" fill="#999999" stroke="black"/>
</svg>
